# xmcd CD database file
#
# Track frame offsets:
#	150
#	14439
#	38446
#	48710
#	70511
#	85310
#	102279
#	119908
#	138384
#	146797
#	148491
#	176863
#	207975
#	247100
#	250074
#
# Disc length: 4737 seconds
#
# Revision: 0
# Processed by: cddbd v1.5.2PL0 Copyright (c) Steve Scherf et al.
# Submitted via: CDex 1.51
#
DISCID=ec127f0f
DTITLE=Steve Miller and Lol Coxhill - "The Story So Far ...""...Oh Really?" Disk 2
DYEAR=2007
DGENRE=Jazz
TTITLE0=Chocolate Field
TTITLE1=One For You
TTITLE2=G Song
TTITLE3=F Bit
TTITLE4=Songs of March
TTITLE5=More G Songs
TTITLE6=Does This
TTITLE7=The greatest Off-Shore Race in The World
TTITLE8=Reprise For Those Who Prefer It Slower
TTITLE9=Tubercular Balls
TTITLE10=Soprano Derivativo - Apricot Jam
TTITLE11=Oh, DO I Like to be Beside the Seaside?
TTITLE12=In Memoriam: Meister Eckhart. From the Welfare State Epic of The Same Name Starring Randolph Scott
TTITLE13=A Fabulous Comedian
TTITLE14=Coo-Coo-Ka-Chew 
EXTD=YEAR: 2007
EXTT0=
EXTT1=
EXTT2=
EXTT3=
EXTT4=
EXTT5=
EXTT6=
EXTT7=
EXTT8=
EXTT9=
EXTT10=
EXTT11=
EXTT12=
EXTT13=
EXTT14=
PLAYORDER=
